<?xml version="1.0" encoding="utf-8"?>
<!-- Generator: Adobe Illustrator 23.1.1, SVG Export Plug-In . SVG Version: 6.00 Build 0)  -->
<svg version="1.1" xmlns="http://www.w3.org/2000/svg" xmlns:xlink="http://www.w3.org/1999/xlink" x="0px" y="0px"
	 viewBox="0 0 864.5 813.4" style="enable-background:new 0 0 864.5 813.4;" xml:space="preserve">
<style type="text/css">
	.st0{fill:#AB19FF;}
</style>
<g id="Слой_2">
</g>
<g id="Layer_1">
	<path class="st0" d="M319.4,149l221.4,128.9c35.8,20.8,57.8,59.1,57.9,100.5l0.6,435.1l265.2-149V232.3
		c0-41.5-22.1-79.9-58.1-100.8L579.4,0L319.4,149z"/>
	<path class="st0" d="M545.1,664.4L323.7,535.5c-35.8-20.8-57.8-59.1-57.9-100.5L265.2,0L0,149v432.1c0,41.5,22.1,79.9,58.1,100.8
		l227,131.5L545.1,664.4L545.1,664.4z M2170.8,481.9c0,146.9-106.3,253.9-247,253.9s-247-107-247-253.9
		c0-147.9,106.3-253.9,247-253.9C2064.6,228.1,2170.8,334.1,2170.8,481.9z M2043.5,481.9c0-90.5-57.4-136.2-119.7-136.2
		c-62.2,0-119.7,45.7-119.7,136.2c0,89.5,57.4,136.2,119.7,136.2C1986.1,618.1,2043.5,572.4,2043.5,481.9z M2719.6,481.9
		c0,146.9-106.3,253.9-247,253.9s-247-107-247-253.9c0-147.9,106.3-253.9,247-253.9S2719.6,334.1,2719.6,481.9z M2592.3,481.9
		c0-90.5-57.4-136.2-119.6-136.2S2353,391.5,2353,481.9c0,89.5,57.4,136.2,119.6,136.2S2592.3,572.4,2592.3,481.9z M1197.6,722.2
		V77.6h134.5v516h308v128.7L1197.6,722.2L1197.6,722.2z M3060.6,444.4l195.9,277.8h-158.9L2971,539l-53.6,56.5v126.7h-129.6V77.6
		h129.6V421L3083,242.7h169.6L3060.6,444.4L3060.6,444.4z M3404.8,446.4l117.9-17.5c27.3-3.9,36.1-17.5,36.1-34.1
		c0-34.1-26.3-62.4-80.9-62.4c-56.5,0-87.7,17.6-91.6,59.5l-117.1,1.5c7.8-75.1,79.1-165.4,207.8-165.4
		c152,0,208.6,85.8,208.6,182.2v235.9c0,25.3,2.9,59.4,5.8,76h-118.9c-2.9-12.7-4.9-39-4.9-57.5c-24.4,38-70.2,71.1-141.3,71.1
		c-102.3,0-164.7-69.2-164.7-144.2C3261.5,505.8,3324.9,458.1,3404.8,446.4L3404.8,446.4z M3558.8,528.2v-21.4l-108.2,16.6
		c-33.1,4.9-59.5,23.4-59.5,60.4c0,28.3,20.5,55.5,62.4,55.5C3508.1,639.3,3558.8,613,3558.8,528.2z"/>
</g>
</svg>
